<?xml version="1.0" encoding="UTF-8"?>
<!DOCTYPE svg PUBLIC "-//W3C//DTD SVG 1.1//EN" "http://www.w3.org/Graphics/SVG/1.1/DTD/svg11.dtd">
<!-- Creator: CorelDRAW (Evaluation Version) -->
<svg xmlns="http://www.w3.org/2000/svg" xml:space="preserve" width="45.1505in" height="12.2685in" version="1.1" style="shape-rendering:geometricPrecision; text-rendering:geometricPrecision; image-rendering:optimizeQuality; fill-rule:evenodd; clip-rule:evenodd"
viewBox="0 0 8245.87 2240.61"
 xmlns:xlink="http://www.w3.org/1999/xlink"
 xmlns:xodm="http://www.corel.com/coreldraw/odm/2003">
 <defs>
  <style type="text/css">
   <![CDATA[
    .fil0 {fill:#17A2FF}
    .fil1 {fill:#17A2FF;fill-rule:nonzero}
   ]]>
  </style>
 </defs>
 <g id="Layer_x0020_1">
  <metadata id="CorelCorpID_0Corel-Layer"/>
  <path class="fil0" d="M1103.94 1255.24c393.65,393.63 398.26,385.84 5.58,778.52 -127.7,-127.7 -147.5,-318.03 -0.31,-517.24 -40.33,40.33 -84.91,84.92 -125.24,125.24 -123.65,123.65 -138.24,380 -0.34,517.89 94.94,94.93 149.25,105.24 218.26,36.88 140.57,-139.25 278.39,-275.76 422.34,-419.71 71.77,-71.77 100.66,-173.58 17.64,-256.6 -208.85,-208.85 -349.54,-453.37 -537.93,-264.99z"/>
  <path class="fil0" d="M1112.26 999.49c-397.79,-397.78 -397.32,-386.77 -5.58,-778.52 127.7,127.7 147.5,318.03 0.31,517.24 40.33,-40.33 84.91,-84.92 125.24,-125.24 123.65,-123.65 138.24,-380 0.34,-517.89 -125.22,-125.21 -143.19,-111.96 -210.09,-45.06 -140.75,140.75 -280.94,280.95 -421.56,421.58 -89.62,89.62 -91.03,203.2 0.05,294.28 197.52,197.52 331.68,413.22 511.28,233.63z"/>
  <path class="fil0" d="M980.23 1123.21c-395.71,395.71 -393.09,391.01 -778.53,5.58 127.7,-127.7 318.03,-147.5 517.24,-0.31 -40.33,-40.33 -84.92,-84.91 -125.24,-125.24 -123.65,-123.65 -380,-138.24 -517.89,-0.34 -90.08,90.09 -94.13,161.02 -42.35,212.8 150.43,150.43 300.23,300.22 450.6,450.59 70.33,70.33 136.22,76.34 228.05,-2.47 225.31,-193.35 457.36,-351.35 268.11,-540.6z"/>
  <path class="fil0" d="M1235.97 1131.52c403.16,-403.18 376,-408.1 778.53,-5.58 -127.7,127.7 -318.03,147.5 -517.24,0.31 40.33,40.33 84.92,84.91 125.24,125.24 123.65,123.65 379.99,138.23 517.89,0.34 102.15,-102.15 87.38,-167.77 13.18,-241.97 -132.39,-132.39 -264.35,-264.33 -396.7,-396.68 -99.86,-99.86 -169.87,-93.07 -260.8,-15.41 -222.74,190.24 -447.1,346.73 -260.09,533.74z"/>
  <path class="fil1" d="M3110.88 803.25c67.83,28.87 119.12,67.2 153.4,114.99 34.52,47.79 51.78,104.56 51.78,169.81 0,95.58 -30.63,172.72 -91.65,231.19 -61.02,58.46 -141.73,87.82 -242.62,87.82 -82.17,0 -150.97,-20.86 -206.64,-62.83 -55.43,-41.97 -92.87,-101.4 -112.56,-178.55l112.56 -55.55c15.32,63.07 40.36,110.86 75.36,143.37 34.76,32.51 78.52,48.76 131.28,48.76 62.24,0 112.56,-17.95 151.21,-53.61 38.41,-35.9 57.62,-82.48 57.62,-139.73 0,-46.58 -13.37,-86.85 -40.36,-121.3 -26.74,-34.45 -67.1,-63.32 -121.31,-87.09l-126.9 -54.1c-69.29,-28.87 -121.07,-65.99 -154.86,-111.59 -34.04,-45.37 -51.05,-99.95 -51.05,-163.51 0,-73.99 27.47,-135.12 82.66,-183.4 55.19,-48.28 125.45,-72.53 211.02,-72.53 62.48,0 116.94,13.34 162.64,39.78 45.95,26.68 81.69,65.74 107.21,117.66l-102.59 65.26c-23.1,-40.27 -49.35,-70.11 -78.28,-89.76 -28.93,-19.65 -61.75,-29.6 -98.22,-29.6 -46.68,0 -84.85,14.31 -114.51,42.7 -29.66,28.38 -44.49,64.53 -44.49,108.68 0,36.87 11.43,68.9 34.28,95.82 22.61,27.17 58.1,50.94 106,71.81l149.03 65.5zm943.51 258.85c0,-73.51 -20.18,-132.7 -60.29,-177.33 -40.11,-44.88 -92.38,-67.2 -157.05,-67.2 -66.86,0 -119.12,20.62 -156.56,61.86 -37.68,41.24 -56.4,98.74 -56.4,172.73 0,78.6 18.96,139.25 56.65,181.7 37.68,42.7 91.41,64.04 160.7,64.04 66.37,0 118.64,-20.62 156.32,-62.1 37.68,-41.48 56.64,-99.46 56.64,-173.69zm107.94 -331.87l0 650.63 -107.94 0 0 -117.9c-26.01,47.31 -59.56,83.45 -100.16,108.2 -40.6,24.99 -86.06,37.36 -136.39,37.36 -93.35,0 -168.96,-32.02 -226.09,-96.31 -57.13,-64.29 -85.82,-149.19 -85.82,-254.96 0,-106.98 27.71,-192.13 83.39,-255.45 55.43,-63.32 129.82,-94.85 222.93,-94.85 54.46,0 101.86,12.13 141.98,36.63 40.11,24.5 72.69,61.13 97.24,109.41l0 -122.75 110.86 0zm326.5 91.7l-119.61 0 0 -91.7 119.61 0 0 -262 113.78 0 0 262 119.61 0 0 91.7 -119.61 0 0 558.93 -113.78 0 0 -558.93zm660.78 599.69l-322.61 -691.39 125.45 0 195.95 454.37 196.43 -454.37 125.45 0 -320.66 691.39zm1025.44 -359.52c0,-73.51 -20.18,-132.7 -60.29,-177.33 -40.11,-44.88 -92.38,-67.2 -157.05,-67.2 -66.86,0 -119.12,20.62 -156.56,61.86 -37.68,41.24 -56.4,98.74 -56.4,172.73 0,78.6 18.96,139.25 56.65,181.7 37.68,42.7 91.41,64.04 160.7,64.04 66.37,0 118.64,-20.62 156.32,-62.1 37.68,-41.48 56.64,-99.46 56.64,-173.69zm107.94 -331.87l0 650.63 -107.94 0 0 -117.9c-26.01,47.31 -59.56,83.45 -100.16,108.2 -40.6,24.99 -86.06,37.36 -136.39,37.36 -93.35,0 -168.96,-32.02 -226.09,-96.31 -57.13,-64.29 -85.82,-149.19 -85.82,-254.96 0,-106.98 27.71,-192.13 83.39,-255.45 55.43,-63.32 129.82,-94.85 222.93,-94.85 54.46,0 101.86,12.13 141.98,36.63 40.11,24.5 72.69,61.13 97.24,109.41l0 -122.75 110.86 0zm310.45 650.63l0 -650.63 99.43 0 0 135.61c29.9,-56.52 61.75,-96.79 95.54,-121.05 33.79,-24.26 74.88,-36.39 123.26,-36.39 13.37,0 26.26,0.97 38.66,3.15 12.16,2.18 24.55,5.34 36.95,9.46l-36.95 100.92c-12.88,-4.37 -25.04,-7.52 -36.47,-9.7 -11.43,-2.18 -22.37,-3.15 -32.82,-3.15 -58.83,0 -103.08,21.11 -132.5,63.56 -29.42,42.45 -44.25,106.26 -44.25,191.41l0 316.82 -110.86 0zm614.1 -558.93l-119.61 0 0 -91.7 119.61 0 0 -262 113.78 0 0 262 119.61 0 0 91.7 -119.61 0 0 558.93 -113.78 0 0 -558.93zm446.11 558.93l0 -1101.85 109.4 0 0 551.65c27.96,-41.73 61.75,-72.78 101.13,-93.16 39.39,-20.38 85.09,-30.57 136.63,-30.57 77.07,0 137.11,20.38 180.14,61.13 43.27,40.76 64.91,97.52 64.91,170.06l0 442.73 -113.78 0 0 -383.05c0,-65.99 -13.86,-114.75 -41.57,-146.77 -27.96,-32.02 -70.75,-48.03 -128.61,-48.03 -33.31,0 -63.7,6.06 -90.92,18.19 -27.23,12.13 -49.84,29.11 -68.07,51.43 -13.61,16.98 -23.58,36.63 -29.42,58.22 -6.08,21.83 -9,59.68 -9,113.77l0 336.23 -110.86 0z"/>
  <path class="fil1" d="M3763.77 1937.71l36.36 -22.03c6.85,11.89 15.45,20.77 26,26.72 10.45,5.95 22.85,8.96 37.1,8.96 13.88,0 25.16,-3.1 33.77,-9.3 8.6,-6.2 12.86,-14.41 12.86,-24.54 0,-7.79 -2.96,-14.32 -8.79,-19.6 -5.92,-5.19 -16,-10.05 -30.25,-14.41l-7.03 -2.26c-60.32,-18.76 -90.47,-42.39 -90.47,-70.7 0,-19.94 8.14,-36.27 24.33,-48.84 16.28,-12.65 37.37,-18.93 63.37,-18.93 21.55,0 39.96,3.85 55.32,11.64 15.36,7.79 26.37,18.76 33.03,33l-34.32 19.18c-5.09,-10.3 -12.58,-18.26 -22.39,-23.79 -9.9,-5.61 -21.28,-8.38 -34.32,-8.38 -12.49,0 -22.66,3.18 -30.53,9.47 -7.86,6.28 -11.75,14.32 -11.75,24.21 0,13.74 16.47,25.3 49.31,34.59 6.2,1.84 11.1,3.18 14.71,4.19 26.83,7.87 45.61,16.84 56.15,26.89 10.55,10.05 15.82,23.29 15.82,39.87 0,21.19 -8.33,38.45 -25.07,51.6 -16.65,13.15 -38.48,19.77 -65.4,19.77 -23.13,0 -42.74,-3.94 -58.93,-11.81 -16.1,-7.79 -29.14,-19.68 -38.85,-35.52zm440.89 -73.8c0,23.71 8.79,43.81 26.27,60.23 17.58,16.5 38.85,24.71 63.74,24.71 24.79,0 45.88,-8.21 63.28,-24.71 17.3,-16.42 26,-36.52 26,-60.23 0,-23.71 -8.7,-43.81 -26,-60.23 -17.39,-16.5 -38.48,-24.71 -63.28,-24.71 -25.07,0 -46.35,8.21 -63.83,24.71 -17.48,16.42 -26.18,36.52 -26.18,60.23zm-44.96 -0.17c0,-16.5 3.33,-32.08 9.99,-46.74 6.75,-14.58 16.47,-27.64 29.33,-39.12 12.86,-11.48 27.38,-20.19 43.66,-26.13 16.28,-5.95 33.58,-8.96 52.08,-8.96 18.04,0 35.15,3.02 51.34,9.05 16.19,6.12 30.81,14.91 44.03,26.55 12.86,11.31 22.57,24.21 29.33,38.87 6.66,14.66 9.99,30.16 9.99,46.49 0,16.42 -3.33,31.83 -9.99,46.32 -6.75,14.49 -16.47,27.39 -29.33,38.62 -13.23,11.81 -27.94,20.77 -44.31,27.06 -16.37,6.2 -33.4,9.3 -51.06,9.3 -18.32,0 -35.62,-3.1 -51.99,-9.21 -16.37,-6.12 -30.9,-14.91 -43.76,-26.39 -12.86,-11.81 -22.57,-24.88 -29.33,-39.29 -6.66,-14.41 -9.99,-29.82 -9.99,-46.41zm501.67 111.74l0 -380.47 43.29 0 0 380.47 -43.29 0zm335.9 -224.66l0 110.57c0,32.25 5.27,54.78 15.82,67.68 10.64,12.82 28.4,19.27 53.56,19.27 25.07,0 42.83,-6.37 53.28,-19.02 10.36,-12.73 15.54,-35.35 15.54,-67.93l0 -110.57 43.29 0 0 131.18c0,33.84 -9.53,59.47 -28.68,76.9 -19.15,17.42 -47.36,26.13 -84.55,26.13 -36.82,0 -64.85,-8.71 -84,-26.22 -19.15,-17.51 -28.68,-43.14 -28.68,-76.81l0 -131.18 44.4 0zm433.96 31.66l-45.51 0 0 -31.66 45.51 0 0 -90.47 43.29 0 0 90.47 45.51 0 0 31.66 -45.51 0 0 193 -43.29 0 0 -193zm292.98 -139.89c0,-7.62 3.05,-14.24 9.07,-19.77 6.11,-5.44 13.51,-8.21 22.2,-8.21 8.42,0 15.73,2.76 21.83,8.38 6.01,5.53 9.07,12.23 9.07,20.1 0,7.71 -2.96,14.32 -8.97,19.69 -5.92,5.45 -13.32,8.13 -21.93,8.13 -8.7,0 -16.1,-2.68 -22.2,-8.13 -6.01,-5.36 -9.07,-12.15 -9.07,-20.19zm9.99 332.89l0 -224.66 42.74 0 0 224.66 -42.74 0zm320.91 -111.58c0,23.71 8.79,43.81 26.27,60.23 17.58,16.5 38.85,24.71 63.74,24.71 24.79,0 45.88,-8.21 63.28,-24.71 17.3,-16.42 26,-36.52 26,-60.23 0,-23.71 -8.7,-43.81 -26,-60.23 -17.39,-16.5 -38.48,-24.71 -63.28,-24.71 -25.07,0 -46.35,8.21 -63.83,24.71 -17.48,16.42 -26.18,36.52 -26.18,60.23zm-44.96 -0.17c0,-16.5 3.33,-32.08 9.99,-46.74 6.75,-14.58 16.47,-27.64 29.33,-39.12 12.86,-11.48 27.38,-20.19 43.66,-26.13 16.28,-5.95 33.58,-8.96 52.08,-8.96 18.04,0 35.15,3.02 51.34,9.05 16.19,6.12 30.81,14.91 44.03,26.55 12.86,11.31 22.57,24.21 29.33,38.87 6.66,14.66 9.99,30.16 9.99,46.49 0,16.42 -3.33,31.83 -9.99,46.32 -6.75,14.49 -16.47,27.39 -29.33,38.62 -13.23,11.81 -27.94,20.77 -44.31,27.06 -16.37,6.2 -33.4,9.3 -51.06,9.3 -18.32,0 -35.62,-3.1 -51.99,-9.21 -16.37,-6.12 -30.9,-14.91 -43.76,-26.39 -12.86,-11.81 -22.57,-24.88 -29.33,-39.29 -6.66,-14.41 -9.99,-29.82 -9.99,-46.41zm499.45 111.74l0 -224.66 41.63 0 0 34.68c10.64,-14.41 23.5,-25.13 38.48,-32.17 14.99,-7.04 32.38,-10.55 51.99,-10.55 29.33,0 52.18,7.04 68.55,21.11 16.47,14.07 24.7,33.67 24.7,58.72l0 152.87 -43.29 0 0 -132.27c0,-22.78 -5.27,-39.62 -15.82,-50.68 -10.64,-11.06 -26.92,-16.59 -48.94,-16.59 -12.67,0 -24.24,2.09 -34.6,6.28 -10.36,4.19 -18.96,10.05 -25.9,17.76 -5.18,5.86 -8.97,12.65 -11.19,20.1 -2.31,7.54 -3.42,20.61 -3.42,39.29l0 116.1 -42.18 0zm446.82 -37.78l36.36 -22.03c6.85,11.89 15.45,20.77 25.99,26.72 10.45,5.95 22.85,8.96 37.1,8.96 13.88,0 25.16,-3.1 33.77,-9.3 8.6,-6.2 12.86,-14.41 12.86,-24.54 0,-7.79 -2.96,-14.32 -8.79,-19.6 -5.92,-5.19 -16,-10.05 -30.25,-14.41l-7.03 -2.26c-60.32,-18.76 -90.47,-42.39 -90.47,-70.7 0,-19.94 8.14,-36.27 24.33,-48.84 16.28,-12.65 37.37,-18.93 63.37,-18.93 21.55,0 39.96,3.85 55.32,11.64 15.36,7.79 26.37,18.76 33.03,33l-34.32 19.18c-5.09,-10.3 -12.58,-18.26 -22.39,-23.79 -9.9,-5.61 -21.28,-8.38 -34.32,-8.38 -12.49,0 -22.66,3.18 -30.53,9.47 -7.86,6.28 -11.75,14.32 -11.75,24.21 0,13.74 16.47,25.3 49.31,34.59 6.2,1.84 11.1,3.18 14.71,4.19 26.83,7.87 45.61,16.84 56.15,26.89 10.55,10.05 15.82,23.29 15.82,39.87 0,21.19 -8.33,38.45 -25.07,51.6 -16.65,13.15 -38.48,19.77 -65.4,19.77 -23.13,0 -42.74,-3.94 -58.93,-11.81 -16.1,-7.79 -29.14,-19.68 -38.85,-35.52z"/>
  <path class="fil0" d="M2722.54 1843.85l818.55 0c20.25,0 36.82,16.57 36.82,36.82l0 0c0,20.25 -16.57,36.82 -36.82,36.82l-818.55 0c-20.25,0 -36.82,-16.57 -36.82,-36.82l0 -0c0,-20.25 16.57,-36.82 36.82,-36.82z"/>
  <path class="fil0" d="M7371.84 1843.85l818.55 0c20.25,0 36.82,16.57 36.82,36.82l0 0c0,20.25 -16.57,36.82 -36.82,36.82l-818.55 0c-20.25,0 -36.82,-16.57 -36.82,-36.82l0 -0c0,-20.25 16.57,-36.82 36.82,-36.82z"/>
  <path class="fil0" d="M1111.45 1050.47c43.4,0 78.58,35.18 78.58,78.58 0,43.4 -35.18,78.58 -78.58,78.58 -43.4,0 -78.58,-35.18 -78.58,-78.58 0,-43.4 35.18,-78.58 78.58,-78.58z"/>
 </g>
</svg>
