<?xml version="1.0" encoding="UTF-8"?>
<!DOCTYPE svg PUBLIC "-//W3C//DTD SVG 1.1//EN" "http://www.w3.org/Graphics/SVG/1.1/DTD/svg11.dtd">
<!-- Creator: CorelDRAW (Evaluation Version) -->
<svg xmlns="http://www.w3.org/2000/svg" xml:space="preserve" width="45.1505in" height="12.2685in" version="1.1" style="shape-rendering:geometricPrecision; text-rendering:geometricPrecision; image-rendering:optimizeQuality; fill-rule:evenodd; clip-rule:evenodd"
viewBox="0 0 8256.87 2243.6"
 xmlns:xlink="http://www.w3.org/1999/xlink"
 xmlns:xodm="http://www.corel.com/coreldraw/odm/2003">
 <defs>
  <style type="text/css">
   <![CDATA[
    .fil7 {fill:url(#id0)}
    .fil6 {fill:url(#id1)}
    .fil3 {fill:url(#id2)}
    .fil2 {fill:url(#id3)}
    .fil0 {fill:url(#id4)}
    .fil1 {fill:url(#id5)}
    .fil4 {fill:url(#id6);fill-rule:nonzero}
    .fil5 {fill:url(#id7);fill-rule:nonzero}
   ]]>
  </style>
  <linearGradient id="id0" gradientUnits="userSpaceOnUse" x1="1128.44" y1="1053.42" x2="1097.42" y2="1207.69">
   <stop offset="0" style="stop-opacity:1; stop-color:#2B91FF"/>
   <stop offset="0.490196" style="stop-opacity:1; stop-color:#77BEFF"/>
   <stop offset="1" style="stop-opacity:1; stop-color:#5EE1FF"/>
  </linearGradient>
  <linearGradient id="id1" gradientUnits="objectBoundingBox" xlink:href="#id0" x1="50.0698%" y1="0%" x2="49.9302%" y2="100.986%">
  </linearGradient>
  <linearGradient id="id2" gradientUnits="userSpaceOnUse" xlink:href="#id0" x1="1978.88" y1="836.11" x2="1379.38" y2="1272.32">
  </linearGradient>
  <linearGradient id="id3" gradientUnits="userSpaceOnUse" xlink:href="#id0" x1="240.28" y1="1421.62" x2="839.78" y2="985.41">
  </linearGradient>
  <linearGradient id="id4" gradientUnits="userSpaceOnUse" xlink:href="#id0" x1="1399.28" y1="2003.51" x2="963.35" y2="1401.78">
  </linearGradient>
  <linearGradient id="id5" gradientUnits="userSpaceOnUse" xlink:href="#id0" x1="821.09" y1="255.59" x2="1256.14" y2="855.68">
  </linearGradient>
  <linearGradient id="id6" gradientUnits="userSpaceOnUse" xlink:href="#id0" x1="5485.47" y1="268.93" x2="5437.54" y2="1433.97">
  </linearGradient>
  <linearGradient id="id7" gradientUnits="userSpaceOnUse" xlink:href="#id0" x1="5466.12" y1="1593.35" x2="5456.89" y2="1991.49">
  </linearGradient>
 </defs>
 <g id="Layer_x0020_1">
  <metadata id="CorelCorpID_0Corel-Layer"/>
  <path class="fil0" d="M1105.42 1256.91c394.18,394.16 398.79,386.35 5.58,779.56 -127.87,-127.87 -147.7,-318.46 -0.31,-517.93 -40.38,40.38 -85.03,85.03 -125.41,125.41 -123.81,123.81 -138.43,380.51 -0.34,518.58 95.07,95.06 149.45,105.38 218.56,36.93 140.76,-139.43 278.76,-276.13 422.91,-420.27 71.87,-71.86 100.79,-173.81 17.66,-256.94 -209.13,-209.13 -350.01,-453.97 -538.64,-265.34z"/>
  <path class="fil1" d="M1113.74 1000.82c-398.32,-398.31 -397.85,-387.29 -5.58,-779.56 127.87,127.87 147.7,318.46 0.31,517.93 40.38,-40.38 85.03,-85.03 125.41,-125.41 123.81,-123.81 138.42,-380.51 0.34,-518.58 -125.39,-125.38 -143.38,-112.11 -210.37,-45.12 -140.94,140.94 -281.31,281.33 -422.12,422.14 -89.74,89.74 -91.15,203.47 0.05,294.67 197.78,197.78 332.12,413.78 511.96,233.94z"/>
  <path class="fil2" d="M981.54 1124.7c-396.24,396.24 -393.61,391.53 -779.56,5.58 127.87,-127.87 318.46,-147.7 517.93,-0.31 -40.38,-40.38 -85.03,-85.03 -125.41,-125.41 -123.81,-123.81 -380.51,-138.43 -518.58,-0.34 -90.2,90.21 -94.26,161.23 -42.41,213.08 150.63,150.63 300.63,300.62 451.21,451.19 70.43,70.43 136.4,76.44 228.36,-2.47 225.62,-193.61 457.97,-351.81 268.46,-541.32z"/>
  <path class="fil3" d="M1237.62 1133.03c403.7,-403.72 376.5,-408.64 779.56,-5.58 -127.87,127.87 -318.46,147.7 -517.93,0.31 40.38,40.38 85.03,85.03 125.41,125.41 123.81,123.81 380.5,138.42 518.58,0.34 102.29,-102.29 87.49,-167.99 13.19,-242.29 -132.56,-132.56 -264.7,-264.68 -397.22,-397.21 -99.99,-99.99 -170.1,-93.19 -261.15,-15.43 -223.04,190.49 -447.7,347.19 -260.44,534.45z"/>
  <path class="fil4" d="M3115.03 804.32c67.92,28.91 119.28,67.29 153.61,115.14 34.57,47.85 51.85,104.7 51.85,170.04 0,95.71 -30.67,172.96 -91.77,231.5 -61.1,58.54 -141.92,87.94 -242.95,87.94 -82.28,0 -151.17,-20.89 -206.92,-62.91 -55.5,-42.02 -92.99,-101.54 -112.71,-178.79l112.71 -55.63c15.34,63.16 40.41,111.01 75.47,143.56 34.81,32.55 78.63,48.83 131.46,48.83 62.32,0 112.71,-17.98 151.42,-53.68 38.46,-35.95 57.69,-82.59 57.69,-139.92 0,-46.64 -13.39,-86.96 -40.41,-121.46 -26.78,-34.49 -67.19,-63.4 -121.47,-87.21l-127.07 -54.17c-69.38,-28.91 -121.23,-66.07 -155.07,-111.74 -34.08,-45.43 -51.12,-100.08 -51.12,-163.73 0,-74.09 27.51,-135.3 82.77,-183.64 55.26,-48.34 125.61,-72.63 211.3,-72.63 62.56,0 117.09,13.36 162.86,39.84 46.01,26.72 81.79,65.83 107.36,117.81l-102.73 65.34c-23.13,-40.32 -49.42,-70.2 -78.39,-89.88 -28.97,-19.68 -61.83,-29.64 -98.35,-29.64 -46.74,0 -84.96,14.33 -114.66,42.75 -29.7,28.42 -44.55,64.62 -44.55,108.83 0,36.92 11.44,68.99 34.32,95.95 22.64,27.21 58.18,51.01 106.14,71.9l149.22 65.59zm944.77 259.19c0,-73.6 -20.2,-132.87 -60.37,-177.57 -40.17,-44.94 -92.51,-67.29 -157.26,-67.29 -66.94,0 -119.28,20.65 -156.77,61.94 -37.73,41.3 -56.48,98.87 -56.48,172.96 0,78.7 18.99,139.43 56.72,181.94 37.73,42.75 91.53,64.13 160.91,64.13 66.46,0 118.8,-20.65 156.53,-62.19 37.73,-41.54 56.72,-99.59 56.72,-173.93zm108.09 -332.31l0 651.5 -108.09 0 0 -118.06c-26.05,47.37 -59.64,83.56 -100.29,108.34 -40.65,25.02 -86.18,37.41 -136.57,37.41 -93.48,0 -169.19,-32.06 -226.39,-96.44 -57.21,-64.37 -85.93,-149.39 -85.93,-255.3 0,-107.13 27.75,-192.39 83.5,-255.79 55.5,-63.4 129.99,-94.98 223.23,-94.98 54.53,0 102,12.15 142.17,36.68 40.17,24.53 72.79,61.21 97.37,109.55l0 -122.92 111.01 0zm326.93 91.82l-119.77 0 0 -91.82 119.77 0 0 -262.35 113.93 0 0 262.35 119.77 0 0 91.82 -119.77 0 0 559.68 -113.93 0 0 -559.68zm661.66 600.49l-323.04 -692.31 125.61 0 196.21 454.98 196.7 -454.98 125.61 0 -321.09 692.31zm1026.81 -360c0,-73.6 -20.2,-132.87 -60.37,-177.57 -40.17,-44.94 -92.51,-67.29 -157.26,-67.29 -66.95,0 -119.28,20.65 -156.77,61.94 -37.73,41.3 -56.48,98.87 -56.48,172.96 0,78.7 18.99,139.43 56.72,181.94 37.73,42.75 91.53,64.13 160.91,64.13 66.46,0 118.8,-20.65 156.53,-62.19 37.73,-41.54 56.72,-99.59 56.72,-173.93zm108.09 -332.31l0 651.5 -108.09 0 0 -118.06c-26.05,47.37 -59.64,83.56 -100.3,108.34 -40.65,25.02 -86.18,37.41 -136.57,37.41 -93.48,0 -169.19,-32.06 -226.39,-96.44 -57.21,-64.37 -85.93,-149.39 -85.93,-255.3 0,-107.13 27.75,-192.39 83.5,-255.79 55.5,-63.4 129.99,-94.98 223.23,-94.98 54.53,0 102,12.15 142.17,36.68 40.17,24.53 72.79,61.21 97.37,109.55l0 -122.92 111.01 0zm310.87 651.5l0 -651.5 99.57 0 0 135.79c29.94,-56.6 61.83,-96.92 95.67,-121.21 33.84,-24.29 74.98,-36.44 123.42,-36.44 13.39,0 26.29,0.97 38.71,3.16 12.17,2.19 24.59,5.34 37,9.47l-37 101.05c-12.9,-4.37 -25.07,-7.53 -36.52,-9.72 -11.44,-2.19 -22.4,-3.16 -32.86,-3.16 -58.91,0 -103.22,21.13 -132.67,63.64 -29.46,42.51 -44.3,106.4 -44.3,191.66l0 317.25 -111.01 0zm614.92 -559.68l-119.77 0 0 -91.82 119.77 0 0 -262.35 113.93 0 0 262.35 119.77 0 0 91.82 -119.77 0 0 559.68 -113.93 0 0 -559.68zm446.7 559.68l0 -1103.32 109.55 0 0 552.39c27.99,-41.78 61.83,-72.87 101.27,-93.28 39.44,-20.4 85.2,-30.61 136.81,-30.61 77.17,0 137.3,20.4 180.38,61.21 43.33,40.81 65,97.65 65,170.28l0 443.32 -113.93 0 0 -383.56c0,-66.07 -13.88,-114.9 -41.63,-146.96 -27.99,-32.06 -70.84,-48.1 -128.78,-48.1 -33.35,0 -63.78,6.07 -91.04,18.22 -27.26,12.15 -49.9,29.15 -68.16,51.5 -13.63,17 -23.61,36.68 -29.46,58.3 -6.09,21.86 -9.01,59.76 -9.01,113.93l0 336.68 -111.01 0z"/>
  <path class="fil5" d="M3768.79 1940.3l36.4 -22.06c6.85,11.91 15.47,20.8 26.03,26.76 10.47,5.96 22.88,8.98 37.15,8.98 13.89,0 25.2,-3.1 33.81,-9.31 8.61,-6.21 12.88,-14.43 12.88,-24.58 0,-7.8 -2.96,-14.34 -8.8,-19.63 -5.93,-5.2 -16.03,-10.07 -30.29,-14.43l-7.04 -2.26c-60.4,-18.79 -90.59,-42.44 -90.59,-70.79 0,-19.96 8.15,-36.32 24.36,-48.9 16.3,-12.67 37.42,-18.96 63.45,-18.96 21.58,0 40.02,3.86 55.39,11.66 15.38,7.8 26.4,18.79 33.07,33.05l-34.37 19.21c-5.09,-10.32 -12.6,-18.29 -22.42,-23.82 -9.91,-5.62 -21.3,-8.39 -34.37,-8.39 -12.5,0 -22.69,3.19 -30.57,9.48 -7.87,6.29 -11.76,14.34 -11.76,24.24 0,13.76 16.49,25.33 49.37,34.64 6.21,1.85 11.12,3.19 14.73,4.19 26.86,7.89 45.67,16.86 56.23,26.93 10.56,10.07 15.84,23.32 15.84,39.93 0,21.22 -8.34,38.5 -25.1,51.67 -16.67,13.17 -38.53,19.8 -65.49,19.8 -23.16,0 -42.8,-3.94 -59.01,-11.83 -16.12,-7.8 -29.18,-19.71 -38.91,-35.56zm441.48 -73.9c0,23.74 8.8,43.87 26.31,60.31 17.6,16.52 38.91,24.74 63.82,24.74 24.82,0 45.94,-8.22 63.36,-24.74 17.32,-16.44 26.03,-36.57 26.03,-60.31 0,-23.74 -8.71,-43.87 -26.03,-60.31 -17.41,-16.52 -38.53,-24.74 -63.36,-24.74 -25.1,0 -46.41,8.22 -63.92,24.74 -17.51,16.44 -26.22,36.57 -26.22,60.31zm-45.02 -0.17c0,-16.52 3.33,-32.13 10,-46.8 6.76,-14.59 16.49,-27.68 29.37,-39.17 12.88,-11.49 27.42,-20.21 43.72,-26.17 16.3,-5.96 33.63,-8.98 52.15,-8.98 18.06,0 35.2,3.02 51.41,9.06 16.21,6.12 30.85,14.93 44.09,26.59 12.88,11.32 22.6,24.24 29.37,38.92 6.67,14.68 10,30.2 10,46.55 0,16.44 -3.33,31.87 -10,46.38 -6.76,14.51 -16.49,27.43 -29.37,38.67 -13.25,11.83 -27.97,20.8 -44.37,27.09 -16.4,6.21 -33.44,9.31 -51.13,9.31 -18.34,0 -35.66,-3.1 -52.06,-9.23 -16.4,-6.12 -30.94,-14.93 -43.81,-26.42 -12.88,-11.83 -22.6,-24.91 -29.37,-39.34 -6.67,-14.43 -10,-29.86 -10,-46.47zm502.34 111.89l0 -380.97 43.35 0 0 380.97 -43.35 0zm336.35 -224.96l0 110.72c0,32.29 5.28,54.86 15.84,67.77 10.65,12.83 28.44,19.29 53.63,19.29 25.1,0 42.89,-6.37 53.36,-19.04 10.38,-12.75 15.56,-35.4 15.56,-68.02l0 -110.72 43.35 0 0 131.35c0,33.89 -9.54,59.55 -28.72,77 -19.18,17.45 -47.43,26.17 -84.67,26.17 -36.87,0 -64.93,-8.72 -84.11,-26.25 -19.17,-17.53 -28.72,-43.2 -28.72,-76.92l0 -131.35 44.46 0zm434.54 31.71l-45.57 0 0 -31.71 45.57 0 0 -90.59 43.35 0 0 90.59 45.57 0 0 31.71 -45.57 0 0 193.26 -43.35 0 0 -193.26zm293.37 -140.08c0,-7.63 3.06,-14.26 9.08,-19.8 6.11,-5.45 13.52,-8.22 22.23,-8.22 8.43,0 15.75,2.77 21.86,8.39 6.02,5.54 9.08,12.25 9.08,20.13 0,7.72 -2.96,14.34 -8.99,19.71 -5.93,5.45 -13.34,8.14 -21.95,8.14 -8.71,0 -16.12,-2.68 -22.23,-8.14 -6.02,-5.37 -9.08,-12.16 -9.08,-20.21zm10 333.33l0 -224.96 42.8 0 0 224.96 -42.8 0zm321.34 -111.73c0,23.74 8.8,43.87 26.31,60.31 17.6,16.52 38.91,24.74 63.82,24.74 24.82,0 45.94,-8.22 63.36,-24.74 17.32,-16.44 26.03,-36.57 26.03,-60.31 0,-23.74 -8.71,-43.87 -26.03,-60.31 -17.41,-16.52 -38.53,-24.74 -63.36,-24.74 -25.1,0 -46.41,8.22 -63.92,24.74 -17.51,16.44 -26.22,36.57 -26.22,60.31zm-45.02 -0.17c0,-16.52 3.33,-32.13 10,-46.8 6.76,-14.59 16.49,-27.68 29.37,-39.17 12.88,-11.49 27.42,-20.21 43.72,-26.17 16.3,-5.96 33.63,-8.98 52.15,-8.98 18.06,0 35.2,3.02 51.41,9.06 16.21,6.12 30.85,14.93 44.09,26.59 12.88,11.32 22.6,24.24 29.37,38.92 6.67,14.68 10,30.2 10,46.55 0,16.44 -3.33,31.87 -10,46.38 -6.76,14.51 -16.49,27.43 -29.37,38.67 -13.25,11.83 -27.97,20.8 -44.37,27.09 -16.4,6.21 -33.44,9.31 -51.13,9.31 -18.34,0 -35.66,-3.1 -52.06,-9.23 -16.4,-6.12 -30.94,-14.93 -43.81,-26.42 -12.88,-11.83 -22.6,-24.91 -29.37,-39.34 -6.67,-14.43 -10,-29.86 -10,-46.47zm500.12 111.89l0 -224.96 41.68 0 0 34.73c10.65,-14.43 23.53,-25.16 38.53,-32.21 15.01,-7.05 32.42,-10.57 52.06,-10.57 29.37,0 52.25,7.05 68.64,21.14 16.49,14.09 24.73,33.72 24.73,58.8l0 153.08 -43.35 0 0 -132.44c0,-22.81 -5.28,-39.67 -15.84,-50.75 -10.65,-11.07 -26.96,-16.61 -49,-16.61 -12.69,0 -24.27,2.1 -34.64,6.29 -10.37,4.19 -18.99,10.07 -25.94,17.78 -5.19,5.87 -8.99,12.67 -11.21,20.13 -2.32,7.55 -3.43,20.63 -3.43,39.34l0 116.25 -42.24 0zm447.41 -37.83l36.4 -22.06c6.85,11.91 15.47,20.8 26.03,26.76 10.47,5.96 22.88,8.98 37.15,8.98 13.89,0 25.2,-3.1 33.81,-9.31 8.61,-6.21 12.88,-14.43 12.88,-24.58 0,-7.8 -2.96,-14.34 -8.8,-19.63 -5.93,-5.2 -16.03,-10.07 -30.29,-14.43l-7.04 -2.26c-60.4,-18.79 -90.59,-42.44 -90.59,-70.79 0,-19.96 8.15,-36.32 24.36,-48.9 16.3,-12.67 37.42,-18.96 63.45,-18.96 21.58,0 40.02,3.86 55.39,11.66 15.38,7.8 26.4,18.79 33.07,33.05l-34.37 19.21c-5.09,-10.32 -12.6,-18.29 -22.42,-23.82 -9.91,-5.62 -21.3,-8.39 -34.37,-8.39 -12.5,0 -22.69,3.19 -30.57,9.48 -7.87,6.29 -11.76,14.34 -11.76,24.24 0,13.76 16.49,25.33 49.37,34.64 6.21,1.85 11.12,3.19 14.73,4.19 26.86,7.89 45.67,16.86 56.23,26.93 10.56,10.07 15.84,23.32 15.84,39.93 0,21.22 -8.34,38.5 -25.1,51.67 -16.67,13.17 -38.53,19.8 -65.49,19.8 -23.16,0 -42.8,-3.94 -59.01,-11.83 -16.12,-7.8 -29.18,-19.71 -38.91,-35.56z"/>
  <path class="fil6" d="M2726.17 1846.3l819.64 0c20.28,0 36.87,16.59 36.87,36.87l0 0c0,20.28 -16.59,36.87 -36.87,36.87l-819.64 0c-20.28,0 -36.87,-16.59 -36.87,-36.87l0 -0c0,-20.28 16.59,-36.87 36.87,-36.87z"/>
  <path class="fil6" d="M7381.67 1846.3l819.64 0c20.28,0 36.87,16.59 36.87,36.87l0 0c0,20.28 -16.59,36.87 -36.87,36.87l-819.64 0c-20.28,0 -36.87,-16.59 -36.87,-36.87l0 -0c0,-20.28 16.59,-36.87 36.87,-36.87z"/>
  <path class="fil7" d="M1112.93 1051.87c43.45,0 78.68,35.23 78.68,78.68 0,43.45 -35.23,78.68 -78.68,78.68 -43.45,0 -78.68,-35.23 -78.68,-78.68 0,-43.45 35.23,-78.68 78.68,-78.68z"/>
 </g>
</svg>
