<?xml version="1.0" encoding="UTF-8"?>
<!DOCTYPE svg PUBLIC "-//W3C//DTD SVG 1.1//EN" "http://www.w3.org/Graphics/SVG/1.1/DTD/svg11.dtd">
<!-- Creator: CorelDRAW (Evaluation Version) -->
<svg xmlns="http://www.w3.org/2000/svg" xml:space="preserve" width="12.118in" height="12.2685in" version="1.1" style="shape-rendering:geometricPrecision; text-rendering:geometricPrecision; image-rendering:optimizeQuality; fill-rule:evenodd; clip-rule:evenodd"
viewBox="0 0 1301.9 1318.08"
 xmlns:xlink="http://www.w3.org/1999/xlink"
 xmlns:xodm="http://www.corel.com/coreldraw/odm/2003">
 <defs>
  <style type="text/css">
   <![CDATA[
    .fil4 {fill:url(#id0)}
    .fil3 {fill:url(#id1)}
    .fil2 {fill:url(#id2)}
    .fil1 {fill:url(#id3)}
    .fil0 {fill:url(#id4)}
   ]]>
  </style>
  <linearGradient id="id0" gradientUnits="userSpaceOnUse" x1="662.94" y1="618.86" x2="644.72" y2="709.5">
   <stop offset="0" style="stop-opacity:1; stop-color:#2B91FF"/>
   <stop offset="0.490196" style="stop-opacity:1; stop-color:#77BEFF"/>
   <stop offset="1" style="stop-opacity:1; stop-color:#5EE1FF"/>
  </linearGradient>
  <linearGradient id="id1" gradientUnits="userSpaceOnUse" xlink:href="#id0" x1="1162.56" y1="491.2" x2="810.36" y2="747.47">
  </linearGradient>
  <linearGradient id="id2" gradientUnits="userSpaceOnUse" xlink:href="#id0" x1="141.16" y1="835.18" x2="493.36" y2="578.91">
  </linearGradient>
  <linearGradient id="id3" gradientUnits="userSpaceOnUse" xlink:href="#id0" x1="482.38" y1="150.16" x2="737.96" y2="502.7">
  </linearGradient>
  <linearGradient id="id4" gradientUnits="userSpaceOnUse" xlink:href="#id0" x1="822.05" y1="1177.03" x2="565.95" y2="823.52">
  </linearGradient>
 </defs>
 <g id="Layer_x0020_1">
  <metadata id="CorelCorpID_0Corel-Layer"/>
  <path class="fil0" d="M649.41 738.41c231.57,231.56 234.28,226.98 3.28,457.98 -75.12,-75.12 -86.77,-187.09 -0.18,-304.27 -23.72,23.72 -49.95,49.95 -73.68,73.68 -72.74,72.74 -81.32,223.54 -0.2,304.66 55.85,55.84 87.8,61.91 128.4,21.7 82.69,-81.92 163.77,-162.22 248.45,-246.9 42.22,-42.22 59.21,-102.11 10.37,-150.95 -122.86,-122.86 -205.63,-266.7 -316.44,-155.88z"/>
  <path class="fil1" d="M654.3 587.97c-234.01,-234 -233.73,-227.52 -3.28,-457.98 75.12,75.12 86.77,187.09 0.18,304.27 23.72,-23.72 49.95,-49.95 73.68,-73.68 72.74,-72.74 81.32,-223.54 0.2,-304.66 -73.67,-73.66 -84.23,-65.86 -123.59,-26.51 -82.8,82.8 -165.27,165.28 -247.99,248 -52.72,52.72 -53.55,119.54 0.03,173.11 116.19,116.19 195.11,243.09 300.77,137.43z"/>
  <path class="fil2" d="M576.64 660.74c-232.79,232.79 -231.24,230.02 -457.98,3.28 75.12,-75.12 187.09,-86.77 304.27,-0.18 -23.72,-23.72 -49.95,-49.95 -73.68,-73.68 -72.74,-72.74 -223.54,-81.32 -304.66,-0.2 -52.99,53 -55.37,94.72 -24.91,125.18 88.49,88.49 176.62,176.61 265.08,265.06 41.38,41.38 80.13,44.91 134.16,-1.45 132.55,-113.74 269.05,-206.68 157.72,-318.02z"/>
  <path class="fil3" d="M727.08 665.64c237.17,-237.18 221.19,-240.07 457.98,-3.28 -75.12,75.12 -187.09,86.77 -304.27,0.18 23.72,23.72 49.95,49.95 73.68,73.68 72.74,72.74 223.54,81.32 304.66,0.2 60.09,-60.09 51.4,-98.69 7.75,-142.34 -77.88,-77.88 -155.51,-155.5 -233.36,-233.35 -58.74,-58.74 -99.93,-54.75 -153.42,-9.06 -131.03,111.91 -263.02,203.97 -153,313.98z"/>
  <path class="fil4" d="M653.83 617.96c25.53,0 46.22,20.69 46.22,46.22 0,25.53 -20.69,46.22 -46.22,46.22 -25.53,0 -46.22,-20.69 -46.22,-46.22 0,-25.53 20.69,-46.22 46.22,-46.22z"/>
 </g>
</svg>
